<svg id="Layer_1" data-name="Layer 1" xmlns="http://www.w3.org/2000/svg" viewBox="0 0 173.02 173.84"><defs><style>.cls-1{fill:#fafafa;}.cls-2,.cls-3{fill:none;stroke:#fafafa;stroke-miterlimit:10;}.cls-2{stroke-width:5px;}.cls-3{stroke-width:3px;}</style></defs><title>logo</title><g id="logo"><g id="בליך"><path id="ב" class="cls-1" d="M129.32,134.54h12.2a6.55,6.55,0,0,1,4.53,4.54v20.1a7.36,7.36,0,0,1,1.09,1.94,8,8,0,0,1,.33,4.44H131.41l-2.09,6.26h32.53L163.2,167a6.62,6.62,0,0,1-2.78-1.81,6.69,6.69,0,0,1-1.57-3l.05-25.4a14.75,14.75,0,0,0-8.74-8H131.33Z" transform="translate(-9.43 -9.08)"/><path id="ל" class="cls-1" d="M91.09,113.63h11.35v13.43h19c0,20.05,0,29.3,0,29.52-4.23,10.41-10.13,14-20.83,15.24l-1.71-2.71c2.65-.93,9.93-7.33,10.83-12.53V134.34H90.48V113.63Z" transform="translate(-9.43 -9.08)"/><polygon id="י" class="cls-1" points="62.47 145.21 73.73 141.23 73.73 119.68 62.47 119.68 62.47 145.21"/><path id="ך" class="cls-1" d="M33.27,128.76H54.33a11,11,0,0,1,9.47,9.46v43.05l-13.45,1.65-.1-44.84a3.32,3.32,0,0,0-.77-2.14A3.47,3.47,0,0,0,47,134.78l-18.15.09Z" transform="translate(-9.43 -9.08)"/></g><g id="book"><path id="outline" class="cls-2" d="M59.87,47.83A26.11,26.11,0,0,0,38.52,46.5Q27.78,78,17,109.44a146.48,146.48,0,0,1,78.05-1.51l17-1.85A191.36,191.36,0,0,1,174,98.36q-1.76-9.42-3.52-18.85" transform="translate(-9.43 -9.08)"/><path id="outline_main_page" class="cls-2" d="M18.81,94.83,55,59.93a25.69,25.69,0,0,0,3.69-6.88A25.42,25.42,0,0,0,60,42.81a65.78,65.78,0,0,1,43,15.61,110,110,0,0,1,59.91-9.57A54.32,54.32,0,0,0,175,80.91c-4.42-1.55-31.84-10.69-55.39,4.53A49.49,49.49,0,0,0,104,100.88c-1,1.64-3.74,6.53-7.09,6.34a4,4,0,0,1-2-.75,86.86,86.86,0,0,0-76-11.64Z" transform="translate(-9.43 -9.08)"/><path class="cls-2" d="M103.82,58.42a135.64,135.64,0,0,0-5.66,48.37" transform="translate(-9.43 -9.08)"/><path id="outline_second_page" class="cls-2" d="M163.73,78l1.5,11a96.72,96.72,0,0,0-64.61,18.36" transform="translate(-9.43 -9.08)"/><path id="candle" class="cls-1" d="M106.66,21.16a18,18,0,0,1-5.88-12.08,17.83,17.83,0,0,1-1.84,7.21c-1.18,2.33-2,3.85-3.86,5a14.05,14.05,0,0,0-6.55,12.92c.56,6.68,5.93,10.18,6.55,10.57l.42,5.88L103,58.42l2.68-3.52q.16-5.2.34-10.41a9.56,9.56,0,0,0,4.36-3.19C113.77,36.69,112.43,28.49,106.66,21.16Zm-3.4,13.35a1.91,1.91,0,0,1-1.29.67h-1.62A3,3,0,0,1,98.12,34a2.77,2.77,0,0,1-.49-1.41,2.08,2.08,0,0,1,.73-1.29,2,2,0,0,1,1.41-.42h2a2.88,2.88,0,0,1,1.16.73,3.07,3.07,0,0,1,.68,1.1A2,2,0,0,1,103.26,34.51Z" transform="translate(-9.43 -9.08)"/><g id="lines"><path class="cls-3" d="M63.28,65.93a53.15,53.15,0,0,1,12.86,3.35,47.15,47.15,0,0,1,13.14,7.53" transform="translate(-9.43 -9.08)"/><path class="cls-3" d="M65.64,59.51c8.79,1.15,12.24,3.1,12.86,3.35a53.92,53.92,0,0,1,13.14,7.53" transform="translate(-9.43 -9.08)"/><path class="cls-3" d="M68,53.09A53.7,53.7,0,0,1,94,64" transform="translate(-9.43 -9.08)"/><path class="cls-3" d="M151.83,68.88a66.7,66.7,0,0,0-38.55,10" transform="translate(-9.43 -9.08)"/><path class="cls-3" d="M150.47,62.46a73.39,73.39,0,0,0-38.7,9.43" transform="translate(-9.43 -9.08)"/><path class="cls-3" d="M149.12,56a89.87,89.87,0,0,0-38.92,8.51" transform="translate(-9.43 -9.08)"/></g></g></g></svg>