<svg id="Layer_1" data-name="Layer 1" xmlns="http://www.w3.org/2000/svg" viewBox="0 0 166.27 173.84"><defs><style>.cls-1{fill:#fafafa;}.cls-2,.cls-3{fill:none;stroke:#fafafa;stroke-miterlimit:10;}.cls-2{stroke-width:3px;}</style></defs><title>logo</title><g id="logo"><g id="בליך"><path id="ב" class="cls-1" d="M132.66,134.54h12.2a6.59,6.59,0,0,1,4.54,4.54v20.1a7.65,7.65,0,0,1,1.08,1.94,8,8,0,0,1,.33,4.44H134.76l-2.1,6.26H165.2l1.34-4.78a6.66,6.66,0,0,1-2.77-1.81,6.74,6.74,0,0,1-1.58-3l.06-25.4a14.8,14.8,0,0,0-8.75-8H134.68Z" transform="translate(-13.18 -9.08)"/><path id="ל" class="cls-1" d="M94.44,113.63h11.34v13.43h19c0,20.05,0,28.23,0,29.09v.43a10.45,10.45,0,0,1-.32,2.38,10.2,10.2,0,0,1-2,3.57,25.66,25.66,0,0,1-2.81,3.4,26.2,26.2,0,0,1-7.51,5.3l-8.2.59-2.71-2.71a18.14,18.14,0,0,0,2.55-1.22,17.83,17.83,0,0,0,4-3.14c3.13-3.5,4.8-6.69,5-8a26.47,26.47,0,0,0,.27-3.39V153c0-1.09,0-6,0-18.67H93.82V113.63Z" transform="translate(-13.18 -9.08)"/><polygon id="י" class="cls-1" points="62.06 145.21 73.32 141.23 73.32 119.68 62.06 119.68 62.06 145.21"/><path id="ך" class="cls-1" d="M36.61,128.76H57.68a11,11,0,0,1,9.46,9.46v43.05L53.7,182.92l-.1-44.84a3.35,3.35,0,0,0-.78-2.14,3.44,3.44,0,0,0-2.52-1.16l-18.15.09Q34.39,131.82,36.61,128.76Z" transform="translate(-13.18 -9.08)"/></g><g id="book"><path id="outline" class="cls-2" d="M59.87,47.83A26.11,26.11,0,0,0,38.52,46.5Q27.78,78,17,109.44a146.48,146.48,0,0,1,78.05-1.51l17-1.85A191.36,191.36,0,0,1,174,98.36q-1.76-9.42-3.52-18.85" transform="translate(-13.18 -9.08)"/><path id="outline_main_page" class="cls-2" d="M18.81,94.83,55,59.93a25.69,25.69,0,0,0,3.69-6.88A25.42,25.42,0,0,0,60,42.81a65.78,65.78,0,0,1,43,15.61,110,110,0,0,1,59.91-9.57A54.32,54.32,0,0,0,175,80.91c-4.42-1.55-31.84-10.69-55.39,4.53A49.49,49.49,0,0,0,104,100.88c-1,1.64-3.74,6.53-7.09,6.34a4,4,0,0,1-2-.75,86.86,86.86,0,0,0-76-11.64Z" transform="translate(-13.18 -9.08)"/><path id="outline_second_page" class="cls-2" d="M163.73,78l1.5,11a96.72,96.72,0,0,0-64.61,18.36" transform="translate(-13.18 -9.08)"/><path id="candle" class="cls-1" d="M106.66,21.16a18,18,0,0,1-5.88-12.08,17.83,17.83,0,0,1-1.84,7.21c-1.18,2.33-2,3.85-3.86,5a14.05,14.05,0,0,0-6.55,12.92c.56,6.68,5.93,10.18,6.55,10.57l.42,5.88L103,58.42l2.68-3.52q.16-5.2.34-10.41a9.56,9.56,0,0,0,4.36-3.19C113.77,36.69,112.43,28.49,106.66,21.16Zm-3.4,13.35a1.91,1.91,0,0,1-1.29.67h-1.62A3,3,0,0,1,98.12,34a2.77,2.77,0,0,1-.49-1.41,2.08,2.08,0,0,1,.73-1.29,2,2,0,0,1,1.41-.42h2a2.88,2.88,0,0,1,1.16.73,3.07,3.07,0,0,1,.68,1.1A2,2,0,0,1,103.26,34.51Z" transform="translate(-13.18 -9.08)"/><g id="lines"><path class="cls-3" d="M65.28,63.93a53.15,53.15,0,0,1,12.86,3.35,47.15,47.15,0,0,1,13.14,7.53" transform="translate(-13.18 -9.08)"/><path class="cls-3" d="M66.64,58.51c8.79,1.15,12.24,3.1,12.86,3.35a53.92,53.92,0,0,1,13.14,7.53" transform="translate(-13.18 -9.08)"/><path class="cls-3" d="M68,53.09A53.7,53.7,0,0,1,94,64" transform="translate(-13.18 -9.08)"/><path class="cls-3" d="M149.12,56.43A90.06,90.06,0,0,0,110.2,65" transform="translate(-13.18 -9.08)"/><path class="cls-3" d="M151.83,67.28a89.87,89.87,0,0,0-38.92,8.51" transform="translate(-13.18 -9.08)"/><path class="cls-3" d="M150.47,61.86a89.87,89.87,0,0,0-38.92,8.51" transform="translate(-13.18 -9.08)"/><path class="cls-3" d="M103.82,58.42a135.64,135.64,0,0,0-5.66,48.37" transform="translate(-13.18 -9.08)"/></g></g></g></svg>